<svg width="38" height="36" viewBox="0 0 38 36" fill="none" xmlns="http://www.w3.org/2000/svg">
<path d="M18.5588 2.67192L18.5588 2.67194L14.7171 11.2905L14.7171 11.2906C14.7073 11.3124 14.6973 11.3352 14.6869 11.3588C14.5795 11.6025 14.4332 11.9345 14.1912 12.2032L14.1912 12.2032C13.9827 12.4347 13.7279 12.6199 13.4431 12.7467L18.5588 2.67192ZM18.5588 2.67192C18.7511 2.24054 18.8876 1.93589 18.9997 1.71191C19.1117 1.93589 19.2482 2.24054 19.4405 2.67192L19.4405 2.67194M18.5588 2.67192L19.4405 2.67194M19.4405 2.67194L23.2822 11.2905L23.2824 11.2909M19.4405 2.67194L23.2824 11.2909M23.2824 11.2909C23.2921 11.3128 23.3022 11.3357 23.3127 11.3595C23.4199 11.6025 23.5661 11.9342 23.8078 12.2027C24.0166 12.4348 24.2718 12.62 24.556 12.7466L24.5563 12.7468M23.2824 11.2909L24.5563 12.7468M24.5563 12.7468C24.8867 12.8939 25.2477 12.9305 25.5128 12.9573C25.5384 12.9599 25.5632 12.9624 25.5869 12.9649L34.9708 13.9553C35.4405 14.0049 35.7724 14.0406 36.02 14.0779C35.8416 14.2536 35.5941 14.4776 35.2433 14.7938C35.2433 14.7938 35.2433 14.7938 35.2432 14.7938L28.2335 21.1109L28.2334 21.111C28.2156 21.127 28.197 21.1436 28.1777 21.1609C27.9794 21.338 27.7086 21.58 27.5279 21.8933L27.5279 21.8934C27.3727 22.1626 27.2751 22.4619 27.2424 22.7723L24.5563 12.7468ZM27.3533 23.8201C27.3484 23.7969 27.3431 23.7726 27.3377 23.7476C27.2813 23.487 27.2045 23.1327 27.2423 22.7729L27.3533 23.8201ZM27.3533 23.8201L29.3112 33.0507L30.4695 32.805L29.3112 33.0507C29.4092 33.5127 29.4778 33.8394 29.5189 34.0865C29.2966 33.9711 29.007 33.8049 28.5979 33.569C28.5979 33.569 28.5979 33.569 28.5979 33.5689L20.4241 28.8544L27.3533 23.8201ZM17.5753 28.8544C17.5958 28.8426 17.617 28.8303 17.639 28.8174C17.8699 28.683 18.1828 28.5007 18.5363 28.4254L18.538 28.425C18.8424 28.3606 19.1569 28.3606 19.4613 28.425L19.463 28.4254C19.8166 28.5007 20.1294 28.683 20.3603 28.8174C20.3823 28.8302 20.4035 28.8426 20.4239 28.8544L17.5753 28.8544ZM17.5753 28.8544L9.40148 33.569C8.99238 33.8049 8.70284 33.9711 8.48056 34.0865C8.52159 33.8394 8.5902 33.5127 8.68819 33.0507L10.646 23.82L10.646 23.82C10.651 23.7966 10.6563 23.7722 10.6617 23.747C10.7181 23.4867 10.7949 23.1322 10.757 22.7726L10.757 22.7724C10.7244 22.4625 10.627 22.1631 10.4715 21.8934L10.4712 21.8928C10.2903 21.5795 10.0198 21.3379 9.82094 21.1603C9.80186 21.1432 9.78343 21.1268 9.7658 21.1109C9.76576 21.1108 9.76572 21.1108 9.76568 21.1108L2.75621 14.7938L17.5753 28.8544ZM12.4126 12.9649L3.02864 13.9553C2.55897 14.0049 2.22705 14.0406 1.97941 14.0779C2.15783 14.2536 2.40536 14.4776 2.75618 14.7938L12.4126 12.9649ZM12.4126 12.9649C12.4126 12.9649 12.4126 12.9649 12.4126 12.9649M12.4126 12.9649L12.4126 12.9649M12.4126 12.9649C12.4363 12.9624 12.461 12.9599 12.4867 12.9573M12.4126 12.9649L12.4867 12.9573M12.4867 12.9573C12.7516 12.9305 13.1126 12.8939 13.443 12.7468L12.4867 12.9573Z" stroke="black" stroke-width="2.368" stroke-linecap="round" stroke-linejoin="round"/>
</svg>
